<?xml version="1.0" encoding="UTF-8" standalone="no"?>
<!DOCTYPE svg PUBLIC "-//W3C//DTD SVG 1.1//EN" "http://www.w3.org/Graphics/SVG/1.1/DTD/svg11.dtd">
<svg width="100%" height="100%" viewBox="0 0 1024 1024" version="1.1" xmlns="http://www.w3.org/2000/svg" xmlns:xlink="http://www.w3.org/1999/xlink" xml:space="preserve" xmlns:serif="http://www.serif.com/" style="fill-rule:evenodd;clip-rule:evenodd;stroke-linejoin:round;stroke-miterlimit:1.5;">
    <g>
        <clipPath id="_clip1">
            <path d="M1024,189.975C1024,85.125 938.875,0 834.025,0L189.975,0C85.125,0 0,85.125 0,189.975L0,834.025C0,938.875 85.125,1024 189.975,1024L834.025,1024C938.875,1024 1024,938.875 1024,834.025L1024,189.975Z"/>
        </clipPath>
        <g clip-path="url(#_clip1)">
            <g transform="matrix(1,0,0,0.577879,0,632)">
                <rect x="0" y="0" width="1024" height="678.343" style="fill:rgb(27,27,41);"/>
            </g>
            <g transform="matrix(0.794969,0,0,1,110.143,-10.5058)">
                <g transform="matrix(1.35587,0,0,1,-125.757,-95.8372)">
                    <path d="M172.404,881.081L749.158,881.081L678.354,791.081" style="fill:none;stroke:white;stroke-width:36.07px;"/>
                </g>
                <g transform="matrix(-1.35587,0,0,-1,1136.76,1772.85)">
                    <path d="M172.404,881.081L749.158,881.081L678.354,791.081" style="fill:none;stroke:white;stroke-width:36.07px;"/>
                </g>
            </g>
            <g transform="matrix(1,0,0,0.931682,0,0)">
                <rect x="0" y="0" width="1024" height="678.343" style="fill:rgb(93,171,245);"/>
            </g>
            <g transform="matrix(11.7132,0,0,11.6253,-2828.87,-2926.09)">
                <path d="M290.387,267.384C290.187,267.734 289.974,267.989 289.749,268.147C289.524,268.305 289.245,268.384 288.912,268.384C288.562,268.384 288.183,268.255 287.775,267.997C287.366,267.739 286.879,267.451 286.312,267.135C285.746,266.818 285.083,266.53 284.325,266.272C283.567,266.014 282.671,265.885 281.638,265.885C280.705,265.885 279.889,265.997 279.189,266.222C278.489,266.447 277.902,266.76 277.427,267.16C276.952,267.559 276.598,268.038 276.364,268.597C276.131,269.155 276.014,269.767 276.014,270.434C276.014,271.284 276.252,271.992 276.727,272.558C277.202,273.125 277.831,273.608 278.614,274.008C279.397,274.408 280.289,274.766 281.288,275.083C282.288,275.4 283.313,275.737 284.363,276.095C285.413,276.453 286.437,276.87 287.437,277.345C288.437,277.82 289.328,278.42 290.112,279.145C290.895,279.869 291.524,280.757 291.999,281.807C292.474,282.856 292.711,284.131 292.711,285.631C292.711,287.264 292.432,288.793 291.874,290.217C291.316,291.642 290.499,292.883 289.424,293.942C288.349,295 287.037,295.833 285.488,296.441C283.938,297.049 282.163,297.353 280.164,297.353C279.014,297.353 277.881,297.241 276.764,297.016C275.648,296.791 274.577,296.47 273.552,296.054C272.528,295.637 271.565,295.137 270.666,294.554C269.766,293.971 268.966,293.321 268.266,292.604L270.241,289.38C270.407,289.147 270.624,288.951 270.891,288.793C271.157,288.634 271.44,288.555 271.74,288.555C272.157,288.555 272.607,288.726 273.09,289.068C273.573,289.409 274.148,289.788 274.815,290.205C275.481,290.621 276.26,291.001 277.152,291.342C278.043,291.684 279.114,291.855 280.364,291.855C282.28,291.855 283.763,291.4 284.813,290.492C285.862,289.584 286.387,288.28 286.387,286.581C286.387,285.631 286.15,284.856 285.675,284.256C285.2,283.656 284.571,283.152 283.788,282.744C283.005,282.336 282.113,281.99 281.113,281.707C280.114,281.423 279.097,281.115 278.064,280.782C277.031,280.448 276.014,280.049 275.015,279.582C274.015,279.115 273.123,278.507 272.34,277.757C271.557,277.008 270.928,276.07 270.453,274.945C269.978,273.821 269.741,272.433 269.741,270.784C269.741,269.467 270.003,268.184 270.528,266.935C271.053,265.685 271.815,264.577 272.815,263.61C273.815,262.644 275.048,261.869 276.514,261.286C277.981,260.702 279.664,260.411 281.563,260.411C283.696,260.411 285.663,260.744 287.462,261.411C289.262,262.077 290.795,263.01 292.061,264.21L290.387,267.384Z" style="fill:rgb(0,14,0);fill-rule:nonzero;"/>
                <rect x="297.391" y="271.309" width="4.788" height="25.645" style="fill:rgb(0,14,0);fill-rule:nonzero;"/>
            </g>
        </g>
    </g>
</svg>
